<svg width="141" height="41" viewBox="0 0 141 41" fill="none" xmlns="http://www.w3.org/2000/svg">
<path fill-rule="evenodd" clip-rule="evenodd" d="M0 0H140.078V40.0389H0V0ZM133.035 28.8715C133.268 28.8715 133.502 28.8326 133.774 28.7548L133.891 31.4396C132.957 31.9455 131.828 32.2567 130.739 32.2567C128.404 32.2567 127.12 30.8949 126.887 28.7548C125.875 30.5447 124.085 32.2567 121.245 32.2567C118.716 32.2567 115.836 30.8949 115.836 27.2373C115.836 22.9182 120 21.9066 124.007 21.9066C124.98 21.9066 125.992 21.9455 126.887 22.0622V21.4785C126.887 19.6887 126.848 17.5486 124.007 17.5486C122.957 17.5486 122.14 17.6264 121.323 18.0544L120.739 20.0389L116.731 19.6108L117.354 15.5641C120.428 14.319 121.984 13.9688 124.863 13.9688C128.638 13.9688 131.828 15.9143 131.828 19.9221V27.5097C131.828 28.5213 132.218 28.8715 133.035 28.8715ZM120.972 26.6147C120.972 27.7431 121.517 28.6381 123.035 28.6381C124.825 28.6381 126.731 27.354 126.848 24.4357C126.031 24.319 125.136 24.2023 124.319 24.2023C122.529 24.2023 120.972 24.7081 120.972 26.6147ZM108.716 31.8287L116.303 5.09722H111.362L103.774 31.8287H108.716ZM98.521 31.8287L106.109 5.09722H101.167L93.5794 31.8287H98.521ZM90.3498 14.319H85.0969V20.6225H90.3498V14.319ZM90.3498 25.5641H85.0969V31.8676H90.3498V25.5641ZM81.4004 25.7198L77.4315 25.3307L76.6144 28.0544H70.9335L80.6611 16.9649L80.272 14.319H64.9024L64.2798 20.4669L67.8985 20.856L68.6767 18.1322H74.1631L64.5133 29.2217L65.0191 31.8676H80.3109L81.4004 25.7198ZM42.9179 23.3462C42.9179 18.2101 46.0308 13.9688 52.3343 13.9688C58.6378 13.9688 61.7117 18.2101 61.7117 23.1128C61.7117 28.7159 57.665 32.2567 52.0619 32.2567C46.6533 32.2567 42.9179 28.9494 42.9179 23.3462ZM48.093 22.996C48.093 26.0311 49.4938 28.3657 52.2175 28.3657C54.8245 28.3657 56.5366 26.3034 56.5366 22.9182C56.5366 19.3774 54.63 17.782 52.2564 17.782C49.6884 17.782 48.093 19.6887 48.093 22.996ZM40.7389 28.0155H38.4821V20.0389C38.4821 15.8754 35.6028 13.9688 32.451 13.9688C29.6884 13.9688 27.7039 15.4085 26.7312 17.7431C25.8751 15.175 23.5405 13.9688 21.0113 13.9688C18.56 13.9688 16.7312 15.0972 15.6806 16.9649V14.319H8.32649V18.1322H10.6611V28.0544H8.32649V31.8676H18.988V28.0544H15.6417V21.9455C15.6417 19.4941 16.6144 17.782 19.0269 17.782C21.0113 17.782 22.023 18.9494 22.023 21.9844V31.8676H29.3771V28.0544H27.0424V21.9455C27.0424 19.4941 28.0152 17.782 30.4277 17.782C32.4121 17.782 33.4238 18.9494 33.4238 21.9844V31.8287H40.7389V28.0155Z" fill="#969399"/>
</svg>
