<svg width="31" height="31" viewBox="0 0 31 31" fill="none" xmlns="http://www.w3.org/2000/svg">
<rect width="31" height="31" fill="#EBF4FB"/>
<path d="M12.1616 6.79615C12.1616 8.04728 11.1473 9.06153 9.89617 9.06153C8.64504 9.06153 7.63079 8.04728 7.63079 6.79615C7.63079 5.54501 8.64504 4.53076 9.89617 4.53076C11.1473 4.53076 12.1616 5.54501 12.1616 6.79615Z" fill="url(#paint0_linear)"/>
<path d="M5.48466 14.9038C5.48466 14.9437 5.48519 14.9835 5.48624 15.0231H5.48466L5.48467 20.7461H4.29236V22.6538H6.35302C7.32212 22.6538 8.10774 21.8682 8.10774 20.8991V15.0231H8.11165C8.10905 14.9837 8.10774 14.9439 8.10774 14.9038C8.10774 13.9161 8.90846 13.1154 9.8962 13.1154C10.8839 13.1154 11.6847 13.9161 11.6847 14.9038C11.6847 14.9439 11.6833 14.9837 11.6807 15.0231H11.6847V22.6538H14.3077V15.0231H14.3062C14.3072 14.9835 14.3077 14.9437 14.3077 14.9038C14.3077 12.4674 12.3326 10.4923 9.8962 10.4923C7.45977 10.4923 5.48466 12.4674 5.48466 14.9038Z" fill="url(#paint1_linear)"/>
<path d="M16.6939 18.8385L16.6923 18.8385V22.6538H19.3154V18.8385L19.3193 18.8385C19.3167 18.799 19.3154 18.7593 19.3154 18.7192C19.3154 17.7315 20.1161 16.9308 21.1039 16.9308C22.0916 16.9308 22.8923 17.7315 22.8923 18.7192C22.8923 18.7593 22.891 18.799 22.8884 18.8385L22.8923 18.8385V20.8991C22.8923 21.8682 23.6779 22.6538 24.647 22.6538H26.7077V20.7461H25.5154L25.5154 18.8385L25.5138 18.8385C25.5149 18.7988 25.5154 18.7591 25.5154 18.7192C25.5154 16.2828 23.5403 14.3077 21.1039 14.3077C18.6674 14.3077 16.6923 16.2828 16.6923 18.7192C16.6923 18.7591 16.6929 18.7988 16.6939 18.8385Z" fill="url(#paint2_linear)"/>
<path d="M11.6846 22.7542C11.6846 22.7207 11.6851 22.6872 11.686 22.6539L14.3077 22.6538C14.3077 23.3123 14.8415 23.8461 15.5 23.8461C16.1585 23.8461 16.6923 23.3123 16.6923 22.6538L19.314 22.6539C19.315 22.6872 19.3154 22.7207 19.3154 22.7542C19.3154 24.806 17.6072 26.4692 15.5 26.4692C13.3929 26.4692 11.6846 24.806 11.6846 22.7542Z" fill="url(#paint3_linear)"/>
<path d="M21.1038 12.8769C22.355 12.8769 23.3692 11.8627 23.3692 10.6115C23.3692 9.36039 22.355 8.34615 21.1038 8.34615C19.8527 8.34615 18.8385 9.36039 18.8385 10.6115C18.8385 11.8627 19.8527 12.8769 21.1038 12.8769Z" fill="url(#paint4_linear)"/>
<defs>
<linearGradient id="paint0_linear" x1="25" y1="24.4896" x2="15.0562" y2="2.54564" gradientUnits="userSpaceOnUse">
<stop offset="0.161458" stop-color="#F66262"/>
<stop offset="0.932292" stop-color="#3577DA"/>
</linearGradient>
<linearGradient id="paint1_linear" x1="25" y1="24.4896" x2="15.0562" y2="2.54564" gradientUnits="userSpaceOnUse">
<stop offset="0.161458" stop-color="#F66262"/>
<stop offset="0.932292" stop-color="#3577DA"/>
</linearGradient>
<linearGradient id="paint2_linear" x1="25" y1="24.4896" x2="15.0562" y2="2.54564" gradientUnits="userSpaceOnUse">
<stop offset="0.161458" stop-color="#F66262"/>
<stop offset="0.932292" stop-color="#3577DA"/>
</linearGradient>
<linearGradient id="paint3_linear" x1="25" y1="24.4896" x2="15.0562" y2="2.54564" gradientUnits="userSpaceOnUse">
<stop offset="0.161458" stop-color="#F66262"/>
<stop offset="0.932292" stop-color="#3577DA"/>
</linearGradient>
<linearGradient id="paint4_linear" x1="25" y1="24.4896" x2="15.0562" y2="2.54564" gradientUnits="userSpaceOnUse">
<stop offset="0.161458" stop-color="#F66262"/>
<stop offset="0.932292" stop-color="#3577DA"/>
</linearGradient>
</defs>
</svg>
